<svg version="1.2" xmlns="http://www.w3.org/2000/svg" viewBox="0 0 130 106" width="39" height="32">
	<title>WZL_LogoDesign_Native</title>
	<style>
		tspan { white-space:pre } 
		.s0 { fill: #2ff290 } 
	</style>
	<g id="Layer 1">
		<g id="&lt;Group&gt;">
			<g id="&lt;Group&gt;">
				<g id="&lt;Group&gt;">
					<path id="&lt;Path&gt;" class="s0" d="m0.9 41.3v42.5c0 12 9.7 21.6 21.6 21.6 8.2 0 15.7-4.6 19.3-11.9l18.3-36.5c2.7-5.4 10.7-3.5 10.7 2.5v17.6c0 16.3 12.1 28.3 26.9 28.3h2.3c16.1 0 29.1-13 29.1-29.1v-45.2c0-7.6-10.3-10-13.7-3.2l-12.4 24.9c-2.2 4.4-8.9 2.9-8.9-2.1v-36.1c0-7.7-6.3-14-14-14h-0.3c-5.5 0-10.5 3-13 7.9-5.3 10.7-15 30.1-22.1 44.3-2.2 4.4-8.8 2.8-8.8-2.1v-9.4c0-9.6-7.9-17.4-17.5-17.4-9.7 0-17.5 7.8-17.5 17.4z"/>
				</g>
			</g>
		</g>
	</g>
</svg>